<svg width="338" height="63" viewBox="0 0 338 63" fill="none" xmlns="http://www.w3.org/2000/svg">
<path d="M91.648 48V24.336H96.496V27.12H97.264C97.648 26.128 98.256 25.408 99.088 24.96C99.952 24.48 101.008 24.24 102.256 24.24H105.088V28.704H102.064C100.464 28.704 99.152 29.152 98.128 30.048C97.104 30.912 96.592 32.256 96.592 34.08V48H91.648ZM120.455 48.672C118.087 48.672 115.975 48.192 114.119 47.232C112.295 46.24 110.855 44.832 109.799 43.008C108.743 41.184 108.215 39.024 108.215 36.528V35.808C108.215 33.312 108.743 31.168 109.799 29.376C110.855 27.552 112.295 26.144 114.119 25.152C115.975 24.16 118.087 23.664 120.455 23.664C122.823 23.664 124.935 24.16 126.791 25.152C128.647 26.144 130.103 27.552 131.159 29.376C132.215 31.168 132.743 33.312 132.743 35.808V36.528C132.743 39.024 132.215 41.184 131.159 43.008C130.103 44.832 128.647 46.24 126.791 47.232C124.935 48.192 122.823 48.672 120.455 48.672ZM120.455 44.256C122.631 44.256 124.391 43.568 125.735 42.192C127.111 40.784 127.799 38.848 127.799 36.384V35.952C127.799 33.488 127.127 31.568 125.783 30.192C124.439 28.784 122.663 28.08 120.455 28.08C118.311 28.08 116.551 28.784 115.175 30.192C113.831 31.568 113.159 33.488 113.159 35.952V36.384C113.159 38.848 113.831 40.784 115.175 42.192C116.551 43.568 118.311 44.256 120.455 44.256ZM141.209 48L137.177 24.336H142.121L145.097 44.688H145.865L149.993 24.336H158.009L162.089 44.688H162.857L165.833 24.336H170.777L166.745 48H158.441L154.361 27.696H153.593L149.513 48H141.209ZM179.368 57.6V53.28H192.568C193.464 53.28 193.912 52.8 193.912 51.84V44.544H193.144C192.856 45.184 192.408 45.808 191.8 46.416C191.224 46.992 190.44 47.472 189.448 47.856C188.456 48.24 187.208 48.432 185.704 48.432C183.912 48.432 182.312 48.032 180.904 47.232C179.496 46.432 178.392 45.296 177.592 43.824C176.792 42.352 176.392 40.608 176.392 38.592V24.336H181.336V38.208C181.336 40.256 181.848 41.776 182.872 42.768C183.896 43.728 185.32 44.208 187.144 44.208C189.16 44.208 190.776 43.536 191.992 42.192C193.24 40.848 193.864 38.896 193.864 36.336V24.336H198.808V52.848C198.808 54.288 198.376 55.44 197.512 56.304C196.68 57.168 195.528 57.6 194.056 57.6H179.368ZM232.031 48.672C229.727 48.672 227.951 48.256 226.703 47.424C225.487 46.592 224.575 45.664 223.967 44.64H223.199V48H218.351V14.4H223.295V27.552H224.063C224.447 26.912 224.959 26.304 225.599 25.728C226.239 25.12 227.087 24.624 228.143 24.24C229.199 23.856 230.495 23.664 232.031 23.664C234.015 23.664 235.839 24.144 237.503 25.104C239.167 26.064 240.495 27.456 241.487 29.28C242.479 31.104 242.975 33.28 242.975 35.808V36.528C242.975 39.088 242.463 41.28 241.439 43.104C240.447 44.896 239.119 46.272 237.455 47.232C235.823 48.192 234.015 48.672 232.031 48.672ZM230.591 44.352C232.735 44.352 234.495 43.664 235.871 42.288C237.279 40.912 237.983 38.944 237.983 36.384V35.952C237.983 33.424 237.295 31.472 235.919 30.096C234.543 28.72 232.767 28.032 230.591 28.032C228.479 28.032 226.719 28.72 225.311 30.096C223.935 31.472 223.247 33.424 223.247 35.952V36.384C223.247 38.944 223.935 40.912 225.311 42.288C226.719 43.664 228.479 44.352 230.591 44.352ZM260.189 48.672C257.821 48.672 255.709 48.192 253.853 47.232C252.029 46.24 250.589 44.832 249.533 43.008C248.477 41.184 247.949 39.024 247.949 36.528V35.808C247.949 33.312 248.477 31.168 249.533 29.376C250.589 27.552 252.029 26.144 253.853 25.152C255.709 24.16 257.821 23.664 260.189 23.664C262.557 23.664 264.669 24.16 266.525 25.152C268.381 26.144 269.837 27.552 270.893 29.376C271.949 31.168 272.477 33.312 272.477 35.808V36.528C272.477 39.024 271.949 41.184 270.893 43.008C269.837 44.832 268.381 46.24 266.525 47.232C264.669 48.192 262.557 48.672 260.189 48.672ZM260.189 44.256C262.365 44.256 264.125 43.568 265.469 42.192C266.845 40.784 267.533 38.848 267.533 36.384V35.952C267.533 33.488 266.861 31.568 265.517 30.192C264.173 28.784 262.397 28.08 260.189 28.08C258.045 28.08 256.285 28.784 254.909 30.192C253.565 31.568 252.893 33.488 252.893 35.952V36.384C252.893 38.848 253.565 40.784 254.909 42.192C256.285 43.568 258.045 44.256 260.189 44.256ZM289.72 48.672C287.352 48.672 285.24 48.192 283.384 47.232C281.56 46.24 280.12 44.832 279.064 43.008C278.008 41.184 277.48 39.024 277.48 36.528V35.808C277.48 33.312 278.008 31.168 279.064 29.376C280.12 27.552 281.56 26.144 283.384 25.152C285.24 24.16 287.352 23.664 289.72 23.664C292.088 23.664 294.2 24.16 296.056 25.152C297.912 26.144 299.368 27.552 300.424 29.376C301.48 31.168 302.008 33.312 302.008 35.808V36.528C302.008 39.024 301.48 41.184 300.424 43.008C299.368 44.832 297.912 46.24 296.056 47.232C294.2 48.192 292.088 48.672 289.72 48.672ZM289.72 44.256C291.896 44.256 293.656 43.568 295 42.192C296.376 40.784 297.064 38.848 297.064 36.384V35.952C297.064 33.488 296.392 31.568 295.048 30.192C293.704 28.784 291.928 28.08 289.72 28.08C287.576 28.08 285.816 28.784 284.44 30.192C283.096 31.568 282.424 33.488 282.424 35.952V36.384C282.424 38.848 283.096 40.784 284.44 42.192C285.816 43.568 287.576 44.256 289.72 44.256ZM308.164 48V14.4H313.108V33.552H313.876L323.188 24.336H329.764L317.812 35.808L330.148 48H323.62L313.876 38.16H313.108V48H308.164Z" fill="white"/>
<path fill-rule="evenodd" clip-rule="evenodd" d="M23.625 51.1875V39.375H0L0 51.1875C0 57.7114 5.28864 63 11.8125 63C18.3364 63 23.625 57.7114 23.625 51.1875ZM3.9375 43.3125H19.6875V51.1875L19.6659 51.7752C19.3653 55.85 15.964 59.0625 11.8125 59.0625L11.2248 59.0409C7.15002 58.7403 3.9375 55.339 3.9375 51.1875L3.9375 43.3125Z" fill="url(#paint0_linear_1774_3665)"/>
<path fill-rule="evenodd" clip-rule="evenodd" d="M0 11.8125V23.625L23.625 23.625V11.8125C23.625 5.28864 18.3364 0 11.8125 0C5.28864 0 0 5.28864 0 11.8125ZM19.6875 19.6875L3.9375 19.6875V11.8125L3.9591 11.2248C4.25973 7.15002 7.66095 3.9375 11.8125 3.9375L12.4002 3.9591C16.475 4.25972 19.6875 7.66095 19.6875 11.8125V19.6875Z" fill="#4200FF"/>
<path fill-rule="evenodd" clip-rule="evenodd" d="M23.625 43.3125V19.6875H0V43.3125H23.625ZM3.9375 23.625H19.6875V39.375H3.9375V23.625Z" fill="url(#paint1_linear_1774_3665)"/>
<path fill-rule="evenodd" clip-rule="evenodd" d="M51.1875 0L39.375 0V23.625L51.1875 23.625C57.7114 23.625 63 18.3364 63 11.8125C63 5.28864 57.7114 0 51.1875 0ZM43.3164 19.6875V3.9375L51.1875 3.9375L51.7752 3.9591C55.85 4.25973 59.0625 7.66095 59.0625 11.8125L59.0409 12.4002C58.7403 16.475 55.339 19.6875 51.1875 19.6875L43.3164 19.6875Z" fill="url(#paint2_linear_1774_3665)"/>
<path fill-rule="evenodd" clip-rule="evenodd" d="M19.6875 11.8125V23.625H43.3125V0H31.5C24.9761 0 19.6875 5.28864 19.6875 11.8125ZM31.5 3.9375H39.375V19.6875H23.625V11.8125L23.6466 11.2248C23.9472 7.15002 27.3485 3.9375 31.5 3.9375Z" fill="url(#paint3_linear_1774_3665)"/>
<defs>
<linearGradient id="paint0_linear_1774_3665" x1="1.96686" y1="43.3087" x2="1.96686" y2="63" gradientUnits="userSpaceOnUse">
<stop stop-color="#FF00AA"/>
<stop offset="1" stop-color="#FFAA00"/>
</linearGradient>
<linearGradient id="paint1_linear_1774_3665" x1="1.92263" y1="23.5328" x2="1.92263" y2="43.3125" gradientUnits="userSpaceOnUse">
<stop stop-color="#4200FF"/>
<stop offset="1" stop-color="#FF00AA"/>
</linearGradient>
<linearGradient id="paint2_linear_1774_3665" x1="43.379" y1="21.623" x2="63" y2="21.623" gradientUnits="userSpaceOnUse">
<stop stop-color="#00AAFF"/>
<stop offset="1" stop-color="#00FFAA"/>
</linearGradient>
<linearGradient id="paint3_linear_1774_3665" x1="43.3125" y1="1.96258" x2="23.6127" y2="1.96258" gradientUnits="userSpaceOnUse">
<stop stop-color="#00AAFF"/>
<stop offset="1" stop-color="#4200FF"/>
</linearGradient>
</defs>
</svg>
